<?xml version="1.0" encoding="UTF-8"?><svg id="Layer_1" xmlns="http://www.w3.org/2000/svg" xmlns:xlink="http://www.w3.org/1999/xlink" viewBox="0 0 512 512"><defs><linearGradient id="linear-gradient" x1="-1811.36" y1="23147.13" x2="-1811.48" y2="23132.8" gradientTransform="translate(6073.93 15157.07) rotate(-18.37) scale(.54 -.7)" gradientUnits="userSpaceOnUse"><stop offset="0" stop-color="#e86a72"/><stop offset=".18" stop-color="#9296bb"/><stop offset=".32" stop-color="#43beff"/><stop offset=".41" stop-color="#41c6e3"/><stop offset=".51" stop-color="#40cdc9"/><stop offset=".65" stop-color="#3ed4b1"/><stop offset=".83" stop-color="#75df8e"/><stop offset="1" stop-color="#b8ed63"/></linearGradient><linearGradient id="linear-gradient-2" x1="-1810.7" y1="23144.22" x2="-1810.82" y2="23129.89" xlink:href="#linear-gradient"/><linearGradient id="linear-gradient-3" x1="-1811.85" y1="23150.03" x2="-1811.97" y2="23135.7" xlink:href="#linear-gradient"/><linearGradient id="linear-gradient-4" x1="-1810.15" y1="23141.32" x2="-1810.3" y2="23127.02" xlink:href="#linear-gradient"/><linearGradient id="linear-gradient-5" x1="-1809.49" y1="23138.36" x2="-1809.8" y2="23124.18" xlink:href="#linear-gradient"/><linearGradient id="linear-gradient-6" x1="-1812.46" y1="23152.5" x2="-1812.71" y2="23139.35" xlink:href="#linear-gradient"/><symbol id="icon" viewBox="0 0 32.77 31.34"><path d="m10.55,20.11l11.12-9.76-.58-1.08-11.12,9.76.58,1.08Z" fill="url(#linear-gradient)"/><path d="m11.53,21.94l11.12-9.76-.58-1.08-11.12,9.76.58,1.08Z" fill="url(#linear-gradient-2)"/><path d="m20.69,8.52l-11.12,9.76c-.15-.29-.24-.61-.24-.91,0-.3.09-.54.24-.68l9.96-8.74c.15-.13.36-.15.58-.04.22.11.43.33.58.62Z" fill="url(#linear-gradient-3)"/><path d="m23.03,14.53l-9.87,8.66c-.15.13-.36.15-.58.04-.22-.11-.43-.33-.58-.62l11.03-9.68c.15.29.24.61.24.91s-.09.54-.24.68Z" fill="url(#linear-gradient-4)"/><path d="m23.77,16.58l-9.43,8.27c-.15.13-.36.15-.58.04-.22-.11-.43-.33-.58-.62l10.59-9.29c.15.29.24.61.24.91,0,.3-.09.54-.24.68Z" fill="url(#linear-gradient-5)"/><path d="m18.78,7.38l-9.27,8.4c-.16-.28-.26-.6-.28-.89-.02-.29.05-.51.18-.63l8.26-7.49c.13-.12.32-.12.53,0,.21.12.41.34.57.62Z" fill="url(#linear-gradient-6)"/><path id="O" d="m14.22,30.81C6.26,30.81.33,24.16.33,15.19S6.43.75,13.16.42C8.16,2.52,4.24,7.62,4.24,14.94s4.46,12.25,9.98,12.25c4.8,0,9.26-3.79,9.26-10.57,0-6.06-3.79-10.02-8.55-10.52,1.09-.55,2.32-.88,3.58-.88,4.84,0,8.88,4.63,8.88,11.11,0,9.09-6.1,14.48-13.18,14.48ZM18.68.46c7.03,0,13.77,5.64,13.77,15.62,0,8.92-6.02,14.4-12.8,14.82,5.18-2.19,8.88-7.45,8.88-14.57s-4.46-12.25-10.02-12.25c-4.76,0-9.22,3.79-9.22,10.57,0,6.06,3.75,10.06,8.5,10.52-1.09.59-2.27.88-3.54.88-4.84,0-8.88-4.63-8.88-11.11C5.38,5.85,11.48.46,18.68.46Z" fill="#fff" stroke="#333" stroke-miterlimit="10" stroke-width=".65"/></symbol></defs><rect x="-.48" width="512" height="512" rx="67.63" ry="67.63" fill="#333"/><use width="32.77" height="31.34" transform="translate(19.62 29.95) scale(14.43)" xlink:href="#icon"/></svg>